<svg xmlns="http://www.w3.org/2000/svg" width="329" height="96" fill="none" viewBox="0 0 329 96"><rect width="328.66" height="96" fill="#000" rx="10"/><path fill="#EA4335" d="M50.738 46.565 24.243 74.683l.005.017a7.15 7.15 0 0 0 6.91 5.3 7.13 7.13 0 0 0 3.63-.985l.085-.05 29.82-17.207z"/><path fill="#FBBC04" d="m77.539 41.776-.025-.017-12.875-7.462-14.504 12.906 14.557 14.552 12.805-7.388a7.17 7.17 0 0 0 3.77-6.308 7.15 7.15 0 0 0-3.728-6.283"/><path fill="#4285F4" d="M24.244 21.315A7 7 0 0 0 24 23.157v49.687c0 .637.085 1.254.246 1.838l27.402-27.399z"/><path fill="#34A853" d="m50.933 48 13.71-13.708-29.784-17.27A7.16 7.16 0 0 0 31.16 16a7.16 7.16 0 0 0-6.915 5.308l-.003.007z"/><path fill="#fff" d="M120.264 23.945q0 2.956-1.752 4.711-1.994 2.088-5.184 2.089-3.058 0-5.193-2.12-2.14-2.117-2.138-5.252-.002-3.134 2.138-5.254 2.135-2.118 5.193-2.12c1.009 0 1.978.199 2.895.594q1.38.592 2.209 1.576l-1.242 1.241q-1.4-1.672-3.862-1.674-2.23 0-3.855 1.566c-1.084 1.047-1.625 2.401-1.625 4.071q0 2.502 1.625 4.07t3.855 1.566q2.362 0 3.942-1.576 1.023-1.025 1.18-2.858h-5.122V22.88h6.837q.099.553.099 1.065"/><path fill="#fff" d="M120.264 23.945q0 2.956-1.752 4.711-1.994 2.088-5.184 2.089-3.058 0-5.193-2.12-2.14-2.117-2.138-5.252-.002-3.134 2.138-5.254 2.135-2.118 5.193-2.12c1.009 0 1.978.199 2.895.594q1.38.592 2.209 1.576l-1.242 1.241q-1.4-1.672-3.862-1.674-2.23 0-3.855 1.566c-1.084 1.047-1.625 2.401-1.625 4.071q0 2.502 1.625 4.07t3.855 1.566q2.362 0 3.942-1.576 1.023-1.025 1.18-2.858h-5.122V22.88h6.837q.099.553.099 1.065m10.841-5.894h-6.426v4.474h5.796v1.695h-5.796v4.474h6.426v1.736h-8.239V16.318h8.239z"/><path fill="#fff" d="M131.105 18.051h-6.426v4.474h5.796v1.695h-5.796v4.474h6.426v1.736h-8.239V16.318h8.239zm7.646 12.379h-1.813V18.05h-3.942v-1.733h9.697v1.734h-3.942z"/><path fill="#fff" d="M138.751 30.43h-1.813V18.05h-3.942v-1.733h9.697v1.734h-3.942zm10.959-14.113h1.813V30.43h-1.813zm9.856 14.113h-1.814V18.05h-3.942v-1.733h9.698v1.734h-3.942z"/><path fill="#fff" d="M159.566 30.43h-1.814V18.05h-3.942v-1.733h9.698v1.734h-3.942zm13.291-3.006q1.566 1.586 3.833 1.585 2.269.001 3.834-1.585 1.568-1.588 1.569-4.05c0-1.642-.524-2.995-1.569-4.05q-1.565-1.589-3.834-1.588-2.267 0-3.833 1.587c-1.042 1.056-1.567 2.409-1.567 4.05q.002 2.463 1.567 4.05m9.008 1.18q-2.081 2.141-5.175 2.14-3.093.001-5.172-2.14-2.08-2.137-2.079-5.23 0-3.095 2.079-5.234T176.69 16q3.075 0 5.165 2.15 2.09 2.148 2.089 5.223 0 3.094-2.079 5.231"/><path fill="#fff" d="M172.857 27.424q1.566 1.586 3.833 1.585 2.269.001 3.834-1.585 1.568-1.588 1.569-4.05c0-1.642-.524-2.995-1.569-4.05q-1.565-1.589-3.834-1.588-2.267 0-3.833 1.587c-1.042 1.056-1.567 2.409-1.567 4.05q.002 2.463 1.567 4.05m9.008 1.18q-2.081 2.141-5.175 2.14-3.093.001-5.172-2.14-2.08-2.137-2.079-5.23 0-3.095 2.079-5.234T176.69 16q3.075 0 5.165 2.15 2.09 2.148 2.089 5.223 0 3.094-2.079 5.231m4.624 1.826V16.316h2.206l6.858 10.977h.08l-.08-2.719v-8.258h1.816V30.43h-1.893L188.3 18.92h-.078l.078 2.72v8.79z"/><path fill="#fff" d="M186.489 30.43V16.316h2.206l6.858 10.977h.08l-.08-2.719v-8.258h1.816V30.43h-1.893L188.3 18.92h-.078l.078 2.72v8.79zm73.76 39.983h4.389V41.011h-4.389zm39.531-18.811-5.031 12.748h-.151l-5.221-12.748h-4.728l7.83 17.816-4.462 9.912h4.575l12.068-27.728zm-24.889 15.471c-1.44 0-3.444-.717-3.444-2.497 0-2.268 2.496-3.138 4.653-3.138 1.928 0 2.838.416 4.01.983-.341 2.724-2.686 4.652-5.219 4.652m.529-16.113c-3.178 0-6.471 1.4-7.83 4.502l3.895 1.625c.833-1.626 2.383-2.157 4.01-2.157 2.27 0 4.577 1.362 4.615 3.784v.301c-.795-.453-2.496-1.133-4.577-1.133-4.199 0-8.475 2.307-8.475 6.618 0 3.935 3.444 6.47 7.301 6.47 2.952 0 4.579-1.323 5.6-2.876h.151v2.27h4.236V59.09c0-5.22-3.895-8.131-8.926-8.131m-27.123 4.222h-6.243V45.103h6.243c3.281 0 5.143 2.717 5.143 5.038 0 2.28-1.862 5.04-5.143 5.04m-.113-14.171h-10.516v29.402h4.386V59.274h6.13c4.864 0 9.645-3.523 9.645-9.133s-4.781-9.13-9.645-9.13m-57.345 26.067c-3.031 0-5.569-2.538-5.569-6.023 0-3.524 2.538-6.102 5.569-6.102 2.994 0 5.342 2.578 5.342 6.102 0 3.485-2.348 6.023-5.342 6.023m5.041-13.83h-.153c-.986-1.173-2.879-2.234-5.266-2.234-5.003 0-9.587 4.393-9.587 10.04 0 5.608 4.584 9.966 9.587 9.966 2.387 0 4.28-1.06 5.266-2.274h.153v1.441c0 3.827-2.047 5.873-5.344 5.873-2.691 0-4.358-1.933-5.04-3.563l-3.827 1.592c1.098 2.654 4.017 5.911 8.867 5.911 5.153 0 9.511-3.032 9.511-10.42V51.619h-4.167zm7.199 17.165h4.396V41.008h-4.396zm10.874-9.7c-.113-3.864 2.994-5.835 5.228-5.835 1.745 0 3.222.87 3.714 2.122zm13.641-3.335c-.832-2.234-3.373-6.364-8.563-6.364-5.154 0-9.434 4.052-9.434 10.003 0 5.607 4.243 10.003 9.925 10.003 4.587 0 7.24-2.804 8.338-4.433l-3.41-2.275c-1.136 1.668-2.691 2.766-4.928 2.766-2.234 0-3.827-1.023-4.85-3.03l13.376-5.534zm-106.565-3.295v4.243h10.154c-.303 2.388-1.098 4.13-2.31 5.342-1.479 1.48-3.791 3.109-7.844 3.109-6.253 0-11.141-5.04-11.141-11.292 0-6.254 4.888-11.292 11.141-11.292 3.373 0 5.836 1.327 7.654 3.032l2.994-2.994c-2.54-2.425-5.911-4.283-10.648-4.283-8.563 0-15.763 6.973-15.763 15.537s7.2 15.535 15.763 15.535c4.622 0 8.108-1.517 10.836-4.358 2.806-2.804 3.676-6.743 3.676-9.928 0-.986-.075-1.893-.228-2.65zm26.058 12.995c-3.031 0-5.647-2.5-5.647-6.061 0-3.601 2.616-6.064 5.647-6.064 3.03 0 5.645 2.463 5.645 6.064 0 3.56-2.615 6.061-5.645 6.061m0-16.064c-5.534 0-10.043 4.205-10.043 10.003 0 5.76 4.509 10.003 10.043 10.003 5.532 0 10.041-4.243 10.041-10.003 0-5.798-4.509-10.003-10.041-10.003m21.905 16.064c-3.032 0-5.648-2.5-5.648-6.061 0-3.601 2.616-6.064 5.648-6.064s5.644 2.463 5.644 6.064c0 3.56-2.613 6.061-5.644 6.061m0-16.064c-5.532 0-10.041 4.205-10.041 10.003 0 5.76 4.509 10.003 10.041 10.003s10.04-4.243 10.04-10.003c0-5.798-4.508-10.003-10.04-10.003"/></svg>