<svg xmlns="http://www.w3.org/2000/svg" width="281" height="64" fill="none" viewBox="0 0 281 64"><path fill="#EA4335" d="M26.737 30.565.244 58.682l.005.018A7.15 7.15 0 0 0 7.16 64a7.13 7.13 0 0 0 3.63-.985l.085-.05 29.82-17.207z"/><path fill="#FBBC04" d="m53.539 25.777-.025-.018-12.875-7.462-14.504 12.906L40.69 45.756l12.805-7.388a7.17 7.17 0 0 0 3.77-6.307 7.15 7.15 0 0 0-3.727-6.284"/><path fill="#4285F4" d="M.244 5.315A7 7 0 0 0 0 7.157v49.687c0 .637.085 1.254.246 1.838l27.402-27.398z"/><path fill="#34A853" d="m26.933 32 13.71-13.708-29.785-17.27A7.16 7.16 0 0 0 7.161 0 7.16 7.16 0 0 0 .246 5.308l-.003.007z"/><path fill="#fff" d="M96.264 7.945q0 2.955-1.752 4.711-1.994 2.09-5.184 2.089-3.059 0-5.193-2.12-2.14-2.117-2.138-5.251-.002-3.135 2.138-5.255Q86.27.001 89.328 0a7.3 7.3 0 0 1 2.896.593q1.38.592 2.208 1.576L93.19 3.41q-1.4-1.672-3.862-1.674-2.228 0-3.855 1.566-1.626 1.569-1.625 4.072 0 2.501 1.625 4.069 1.627 1.568 3.855 1.566 2.362.001 3.942-1.576 1.023-1.025 1.18-2.858h-5.122V6.88h6.838q.098.553.098 1.065"/><path fill="#fff" d="M96.264 7.945q0 2.955-1.752 4.711-1.994 2.09-5.184 2.089-3.059 0-5.193-2.12-2.14-2.117-2.138-5.251-.002-3.135 2.138-5.255Q86.27.001 89.328 0a7.3 7.3 0 0 1 2.896.593q1.38.592 2.208 1.576L93.19 3.41q-1.4-1.672-3.862-1.674-2.228 0-3.855 1.566-1.626 1.569-1.625 4.072 0 2.501 1.625 4.069 1.627 1.568 3.855 1.566 2.362.001 3.942-1.576 1.023-1.025 1.18-2.858h-5.122V6.88h6.838q.098.553.098 1.065m10.841-5.894h-6.425v4.474h5.795V8.22h-5.795v4.473h6.425v1.736h-8.239V.318h8.239z"/><path fill="#fff" d="M107.105 2.051h-6.425v4.474h5.795V8.22h-5.795v4.473h6.425v1.736h-8.239V.318h8.239zm7.646 12.379h-1.813V2.05h-3.942V.318h9.697v1.734h-3.942z"/><path fill="#fff" d="M114.751 14.43h-1.813V2.05h-3.942V.318h9.697v1.734h-3.942zM125.71.317h1.813V14.43h-1.813zm9.856 14.113h-1.813V2.05h-3.942V.318h9.697v1.734h-3.942z"/><path fill="#fff" d="M135.566 14.43h-1.813V2.05h-3.942V.318h9.697v1.734h-3.942zm13.291-3.006q1.565 1.586 3.834 1.585 2.267.001 3.833-1.585 1.568-1.588 1.569-4.05c0-1.642-.524-2.995-1.569-4.05q-1.566-1.588-3.833-1.588-2.269 0-3.834 1.587c-1.042 1.056-1.567 2.409-1.567 4.05q.002 2.463 1.567 4.05m9.008 1.18q-2.082 2.141-5.174 2.14-3.095.001-5.172-2.14-2.081-2.137-2.08-5.23-.001-3.095 2.08-5.234Q149.596.001 152.691 0q3.075 0 5.165 2.15 2.088 2.148 2.088 5.224 0 3.093-2.079 5.23"/><path fill="#fff" d="M148.857 11.424q1.565 1.586 3.834 1.585 2.267.001 3.833-1.585 1.568-1.588 1.569-4.05c0-1.642-.524-2.995-1.569-4.05q-1.566-1.588-3.833-1.588-2.269 0-3.834 1.587c-1.042 1.056-1.567 2.409-1.567 4.05q.002 2.463 1.567 4.05m9.008 1.18q-2.082 2.141-5.174 2.14-3.095.001-5.172-2.14-2.081-2.137-2.08-5.23-.001-3.095 2.08-5.234Q149.596.001 152.691 0q3.075 0 5.165 2.15 2.088 2.148 2.088 5.224 0 3.093-2.079 5.23m4.624 1.826V.316h2.206l6.859 10.977h.08l-.08-2.719V.317h1.816V14.43h-1.894L164.3 2.92h-.077l.077 2.72v8.79z"/><path fill="#fff" d="M162.489 14.43V.316h2.206l6.859 10.977h.08l-.08-2.719V.317h1.816V14.43h-1.894L164.3 2.92h-.077l.077 2.72v8.79zm73.761 39.983h4.389V25.011h-4.389zm39.53-18.811-5.031 12.748h-.151l-5.221-12.748h-4.728l7.83 17.816-4.462 9.912h4.575l12.068-27.728zm-24.889 15.471c-1.44 0-3.443-.717-3.443-2.498 0-2.267 2.495-3.137 4.652-3.137 1.928 0 2.839.416 4.01.983-.341 2.724-2.686 4.652-5.219 4.652m.529-16.113c-3.177 0-6.47 1.4-7.83 4.502l3.895 1.625c.833-1.626 2.383-2.157 4.01-2.157 2.27 0 4.577 1.362 4.615 3.784v.301c-.795-.453-2.495-1.133-4.577-1.133-4.198 0-8.474 2.307-8.474 6.618 0 3.935 3.443 6.47 7.3 6.47 2.952 0 4.58-1.323 5.6-2.876h.151v2.27h4.236V43.09c0-5.22-3.895-8.131-8.926-8.131m-27.123 4.222h-6.242V29.103h6.242c3.281 0 5.144 2.717 5.144 5.038 0 2.28-1.863 5.04-5.144 5.04m-.113-14.171h-10.516v29.402h4.387V43.274h6.129c4.864 0 9.645-3.523 9.645-9.133s-4.781-9.13-9.645-9.13M166.84 51.078c-3.032 0-5.57-2.538-5.57-6.023 0-3.524 2.538-6.102 5.57-6.102 2.994 0 5.341 2.578 5.341 6.102 0 3.485-2.347 6.023-5.341 6.023m5.04-13.83h-.153c-.985-1.173-2.879-2.234-5.266-2.234-5.003 0-9.587 4.393-9.587 10.04 0 5.608 4.584 9.966 9.587 9.966 2.387 0 4.281-1.06 5.266-2.274h.153v1.441c0 3.827-2.046 5.873-5.344 5.873-2.69 0-4.358-1.933-5.04-3.563l-3.827 1.592c1.099 2.654 4.017 5.911 8.867 5.911 5.153 0 9.512-3.032 9.512-10.42V35.619h-4.168zm7.199 17.165h4.396V25.008h-4.396zm10.874-9.7c-.113-3.864 2.994-5.835 5.228-5.835 1.745 0 3.223.87 3.714 2.122zm13.641-3.335c-.832-2.234-3.372-6.364-8.563-6.364-5.153 0-9.434 4.052-9.434 10.003 0 5.607 4.243 10.003 9.925 10.003 4.587 0 7.24-2.804 8.338-4.434l-3.41-2.274c-1.136 1.668-2.691 2.766-4.928 2.766-2.234 0-3.826-1.023-4.85-3.03l13.376-5.534zM97.03 38.083v4.243h10.153c-.303 2.388-1.098 4.13-2.309 5.342-1.48 1.48-3.792 3.109-7.844 3.109-6.254 0-11.142-5.04-11.142-11.292 0-6.254 4.888-11.292 11.142-11.292 3.373 0 5.835 1.327 7.653 3.032l2.994-2.994c-2.54-2.425-5.91-4.283-10.647-4.283-8.564 0-15.763 6.973-15.763 15.537s7.2 15.535 15.763 15.535c4.621 0 8.107-1.517 10.835-4.358 2.806-2.804 3.677-6.743 3.677-9.928 0-.986-.076-1.893-.229-2.65zm26.058 12.995c-3.032 0-5.648-2.5-5.648-6.061 0-3.601 2.616-6.064 5.648-6.064 3.029 0 5.644 2.463 5.644 6.064 0 3.56-2.615 6.061-5.644 6.061m0-16.064c-5.535 0-10.043 4.205-10.043 10.003 0 5.76 4.508 10.003 10.043 10.003 5.532 0 10.04-4.243 10.04-10.003 0-5.798-4.508-10.003-10.04-10.003m21.904 16.064c-3.032 0-5.647-2.5-5.647-6.061 0-3.601 2.615-6.064 5.647-6.064s5.645 2.463 5.645 6.064c0 3.56-2.613 6.061-5.645 6.061m0-16.064c-5.532 0-10.041 4.205-10.041 10.003 0 5.76 4.509 10.003 10.041 10.003s10.041-4.243 10.041-10.003c0-5.798-4.509-10.003-10.041-10.003"/></svg>