<svg aria-hidden="true" style="position: absolute; width: 0; height: 0; overflow: hidden;" version="1.1" xmlns="http://www.w3.org/2000/svg" xmlns:xlink="http://www.w3.org/1999/xlink">
<defs>
<symbol id="icon-arrow-button-left" viewBox="0 0 32 32">
<path fill="#0f0f0f" style="fill: var(--color1, #0f0f0f)" d="M29.333 13.333c0 7.364-5.97 13.333-13.333 13.333s-13.333-5.97-13.333-13.333c0-7.364 5.97-13.333 13.333-13.333s13.333 5.97 13.333 13.333z"></path>
<path fill="#fff" style="fill: var(--color2, #fff)" d="M18.222 18.778l-5.556-5.556 5.556-5.556 0.986 0.986-4.569 4.569 4.569 4.569-0.986 0.986z"></path>
</symbol>
<symbol id="icon-arrow-button-right" viewBox="0 0 32 32">
<path fill="#0f0f0f" style="fill: var(--color1, #0f0f0f)" d="M2.667 13.333c0 7.364 5.97 13.333 13.333 13.333s13.333-5.97 13.333-13.333c0-7.364-5.97-13.333-13.333-13.333s-13.333 5.97-13.333 13.333z"></path>
<path fill="#fff" style="fill: var(--color2, #fff)" d="M13.778 18.778l5.556-5.556-5.556-5.556-0.986 0.986 4.569 4.569-4.569 4.569 0.986 0.986z"></path>
</symbol>

<symbol id="icon-burger-menu" viewBox="0 0 48 32">
<path fill="#000"  d="M0 32v-4.445h48v4.445h-48zM0 18.222v-4.444h48v4.444h-48zM0 4.445v-4.445h48v4.445h-48z"></path>
</symbol>

<symbol id="icon-close-cross" viewBox="0 0 32 32">
<path fill="#000"  d="M3.297 31.296l-2.592-2.592 12.703-12.704-12.703-12.704 2.592-2.592 12.704 12.703 12.704-12.703 2.592 2.592-12.703 12.704 12.703 12.704-2.592 2.592-12.704-12.703-12.704 12.703z"></path>
</symbol>
<symbol id="icon-play-btn" viewBox="0 0 110 32">
<path fill="#000" style="fill: var(--color3, #000)" d="M3.333 0h102.887c1.841 0 3.333 1.492 3.333 3.333v25.333c0 1.841-1.492 3.333-3.333 3.333h-102.887c-1.841 0-3.333-1.492-3.333-3.333v-25.333c0-1.841 1.492-3.333 3.333-3.333z"></path>
<path fill="#ea4335" style="fill: var(--color4, #ea4335)" d="M16.913 15.521l-8.831 9.373c0.001 0.002 0.001 0.004 0.002 0.006 0.271 1.018 1.2 1.767 2.303 1.767 0.441 0 0.855-0.119 1.21-0.328l0.028-0.017 9.94-5.736-4.652-5.065z"></path>
<path fill="#fbbc04" style="fill: var(--color5, #fbbc04)" d="M25.846 13.925l-0.008-0.006-4.292-2.487-4.835 4.302 4.852 4.851 4.268-2.463c0.748-0.405 1.257-1.194 1.257-2.103 0-0.904-0.501-1.689-1.242-2.094z"></path>
<path fill="#4285f4" style="fill: var(--color6, #4285f4)" d="M8.081 7.105c-0.053 0.196-0.081 0.401-0.081 0.614v16.562c0 0.212 0.028 0.418 0.082 0.613l9.134-9.133-9.135-8.656z"></path>
<path fill="#34a853" style="fill: var(--color7, #34a853)" d="M16.978 16l4.57-4.569-9.928-5.756c-0.361-0.216-0.782-0.341-1.233-0.341-1.103 0-2.034 0.751-2.305 1.769 0 0.001-0.001 0.002-0.001 0.002l8.897 8.895z"></path>
<path fill="#fff" style="fill: var(--color2, #fff)" d="M40.088 7.982c0 0.657-0.194 1.18-0.584 1.57-0.443 0.464-1.019 0.696-1.728 0.696-0.68 0-1.257-0.235-1.731-0.706-0.476-0.47-0.713-1.054-0.713-1.751s0.237-1.28 0.713-1.751c0.474-0.47 1.051-0.706 1.731-0.706 0.336 0 0.659 0.066 0.965 0.198s0.552 0.307 0.736 0.525l-0.414 0.414c-0.311-0.372-0.74-0.558-1.287-0.558-0.496 0-0.924 0.174-1.285 0.522s-0.542 0.8-0.542 1.357c0 0.556 0.18 1.008 0.542 1.356s0.789 0.522 1.285 0.522c0.525 0 0.963-0.175 1.314-0.525 0.227-0.228 0.358-0.545 0.393-0.953h-1.707v-0.565h2.279c0.022 0.123 0.033 0.241 0.033 0.355z"></path>
<path fill="#fff" style="fill: var(--color2, #fff)" d="M43.702 6.017h-2.142v1.491h1.932v0.565h-1.932v1.491h2.142v0.579h-2.746v-4.704h2.746v0.578z"></path>
<path fill="#fff" style="fill: var(--color2, #fff)" d="M46.25 10.143h-0.604v-4.126h-1.314v-0.578h3.232v0.578h-1.314v4.126z"></path>
<path fill="#fff" style="fill: var(--color2, #fff)" d="M49.903 5.439h0.604v4.704h-0.604v-4.704z"></path>
<path fill="#fff" style="fill: var(--color2, #fff)" d="M53.189 10.143h-0.605v-4.126h-1.314v-0.578h3.233v0.578h-1.314v4.126z"></path>
<path fill="#fff" style="fill: var(--color2, #fff)" d="M57.619 9.141c0.348 0.353 0.774 0.528 1.278 0.528s0.93-0.176 1.278-0.528c0.348-0.353 0.523-0.803 0.523-1.35s-0.175-0.998-0.523-1.35c-0.348-0.353-0.774-0.529-1.278-0.529s-0.93 0.176-1.278 0.529c-0.347 0.352-0.522 0.803-0.522 1.35s0.175 0.997 0.522 1.35zM60.622 9.535c-0.463 0.476-1.037 0.713-1.725 0.713s-1.262-0.238-1.724-0.713c-0.462-0.475-0.693-1.056-0.693-1.744s0.231-1.269 0.693-1.744c0.462-0.475 1.037-0.713 1.724-0.713 0.684 0 1.257 0.239 1.722 0.717s0.696 1.058 0.696 1.741c0 0.688-0.231 1.269-0.693 1.744z"></path>
<path fill="#fff" style="fill: var(--color2, #fff)" d="M62.163 10.143v-4.704h0.735l2.286 3.659h0.027l-0.027-0.906v-2.753h0.605v4.704h-0.631l-2.392-3.837h-0.026l0.026 0.907v2.93h-0.604z"></path>
<path fill="#fff" style="fill: var(--color2, #fff)" d="M86.75 23.471h1.463v-9.801h-1.463v9.801zM99.927 17.201l-1.677 4.249h-0.050l-1.74-4.249h-1.576l2.61 5.939-1.487 3.304h1.525l4.023-9.243h-1.627zM91.63 22.358c-0.48 0-1.148-0.239-1.148-0.833 0-0.756 0.832-1.046 1.551-1.046 0.643 0 0.946 0.139 1.337 0.328-0.114 0.908-0.895 1.551-1.74 1.551zM91.807 16.987c-1.059 0-2.157 0.466-2.61 1.501l1.298 0.542c0.278-0.542 0.794-0.719 1.337-0.719 0.757 0 1.526 0.454 1.538 1.261v0.1c-0.265-0.151-0.832-0.378-1.526-0.378-1.4 0-2.825 0.769-2.825 2.206 0 1.312 1.148 2.157 2.434 2.157 0.984 0 1.526-0.441 1.867-0.959h0.050v0.757h1.412v-3.758c0-1.74-1.298-2.71-2.975-2.71zM82.766 18.394h-2.081v-3.359h2.081c1.094 0 1.714 0.906 1.714 1.679 0 0.76-0.621 1.68-1.714 1.68zM82.728 13.67h-3.505v9.801h1.462v-3.713h2.043c1.621 0 3.215-1.174 3.215-3.044s-1.594-3.043-3.215-3.043zM63.613 22.359c-1.010 0-1.856-0.846-1.856-2.008 0-1.174 0.846-2.034 1.856-2.034 0.998 0 1.781 0.859 1.781 2.034 0 1.162-0.783 2.008-1.781 2.008zM65.293 17.749h-0.051c-0.329-0.391-0.96-0.745-1.755-0.745-1.668 0-3.196 1.465-3.196 3.347 0 1.869 1.528 3.322 3.196 3.322 0.796 0 1.427-0.354 1.755-0.758h0.051v0.481c0 1.276-0.682 1.958-1.781 1.958-0.897 0-1.453-0.644-1.68-1.188l-1.276 0.531c0.366 0.884 1.339 1.97 2.956 1.97 1.718 0 3.17-1.011 3.17-3.473v-5.987h-1.389v0.543zM67.693 23.471h1.465v-9.802h-1.465v9.802zM71.318 20.238c-0.038-1.288 0.998-1.945 1.743-1.945 0.582 0 1.074 0.29 1.238 0.707l-2.981 1.238zM75.865 19.126c-0.277-0.745-1.124-2.122-2.854-2.122-1.718 0-3.145 1.351-3.145 3.334 0 1.869 1.414 3.334 3.308 3.334 1.529 0 2.413-0.935 2.779-1.478l-1.137-0.758c-0.379 0.556-0.897 0.922-1.643 0.922s-1.276-0.341-1.617-1.010l4.459-1.845-0.151-0.379zM40.343 18.028v1.414h3.385c-0.101 0.796-0.366 1.377-0.77 1.78-0.493 0.493-1.264 1.036-2.615 1.036-2.084 0-3.714-1.68-3.714-3.764s1.629-3.764 3.714-3.764c1.124 0 1.945 0.442 2.551 1.011l0.998-0.998c-0.847-0.808-1.97-1.428-3.549-1.428-2.854 0-5.254 2.325-5.254 5.179s2.4 5.178 5.254 5.178c1.541 0 2.703-0.506 3.612-1.453 0.935-0.935 1.225-2.248 1.225-3.309 0-0.328-0.025-0.631-0.076-0.884h-4.761zM49.029 22.359c-1.010 0-1.882-0.833-1.882-2.020 0-1.2 0.872-2.021 1.882-2.021s1.882 0.821 1.882 2.021c0 1.187-0.872 2.020-1.882 2.020zM49.029 17.005c-1.845 0-3.348 1.402-3.348 3.334 0 1.92 1.503 3.334 3.348 3.334s3.347-1.414 3.347-3.334c0-1.933-1.503-3.334-3.347-3.334zM56.331 22.359c-1.011 0-1.883-0.833-1.883-2.020 0-1.2 0.872-2.021 1.883-2.021s1.881 0.821 1.881 2.021c0 1.187-0.871 2.020-1.881 2.020zM56.331 17.005c-1.844 0-3.347 1.402-3.347 3.334 0 1.92 1.503 3.334 3.347 3.334s3.347-1.414 3.347-3.334c0-1.933-1.503-3.334-3.347-3.334z"></path>
</symbol>

<symbol id="icon-play-btn-2" viewBox="0 0 141 32">
<path fill="#ea4335" style="fill: var(--color1, #ea4335)" d="M13.369 15.282l-13.247 14.059c0.001 0.002 0.001 0.006 0.003 0.009 0.407 1.527 1.8 2.65 3.455 2.65 0.662 0 1.283-0.179 1.815-0.493l0.042-0.025 14.91-8.603-6.979-7.597z"></path>
<path fill="#fbbc04" style="fill: var(--color2, #fbbc04)" d="M26.769 12.888l-0.012-0.009-6.437-3.731-7.252 6.453 7.278 7.276 6.402-3.694c1.122-0.607 1.885-1.79 1.885-3.154 0-1.356-0.751-2.533-1.864-3.142z"></path>
<path fill="#4285f4" style="fill: var(--color3, #4285f4)" d="M0.122 2.658c-0.080 0.294-0.122 0.602-0.122 0.921v24.843c0 0.319 0.042 0.627 0.123 0.919l13.701-13.699-13.702-12.984z"></path>
<path fill="#34a853" style="fill: var(--color4, #34a853)" d="M13.466 16l6.855-6.854-14.893-8.634c-0.541-0.325-1.173-0.511-1.849-0.511-1.655 0-3.051 1.126-3.458 2.654 0 0.001-0.001 0.002-0.001 0.004l13.345 13.342z"></path>
<path fill="#fff" style="fill: var(--color5, #fff)" d="M48.132 3.973c0 0.986-0.292 1.77-0.876 2.356-0.664 0.696-1.529 1.044-2.592 1.044-1.020 0-1.885-0.353-2.597-1.060-0.714-0.706-1.069-1.582-1.069-2.626 0-1.045 0.355-1.92 1.069-2.627 0.712-0.706 1.577-1.060 2.597-1.060 0.505 0 0.989 0.099 1.448 0.296 0.46 0.198 0.828 0.46 1.104 0.788l-0.621 0.621c-0.467-0.557-1.11-0.837-1.931-0.837-0.743 0-1.385 0.261-1.928 0.783-0.542 0.523-0.813 1.201-0.813 2.036 0 0.834 0.27 1.512 0.813 2.034 0.542 0.523 1.184 0.783 1.928 0.783 0.788 0 1.444-0.262 1.971-0.788 0.341-0.342 0.537-0.817 0.59-1.429h-2.561v-0.848h3.419c0.033 0.185 0.049 0.362 0.049 0.533z"></path>
<path fill="#fff" style="fill: var(--color5, #fff)" d="M53.553 1.026h-3.212v2.237h2.898v0.848h-2.898v2.237h3.212v0.868h-4.119v-7.056h4.119v0.867z"></path>
<path fill="#fff" style="fill: var(--color5, #fff)" d="M57.376 7.215h-0.907v-6.189h-1.971v-0.867h4.849v0.867h-1.971v6.189z"></path>
<path fill="#fff" style="fill: var(--color5, #fff)" d="M62.855 0.159h0.907v7.056h-0.907v-7.056z"></path>
<path fill="#fff" style="fill: var(--color5, #fff)" d="M67.783 7.215h-0.906v-6.189h-1.971v-0.867h4.849v0.867h-1.971v6.189z"></path>
<path fill="#fff" style="fill: var(--color5, #fff)" d="M74.428 5.712c0.522 0.529 1.16 0.793 1.917 0.793s1.394-0.263 1.916-0.793c0.522-0.529 0.784-1.204 0.784-2.025s-0.262-1.497-0.784-2.025c-0.522-0.529-1.16-0.794-1.916-0.794s-1.395 0.265-1.917 0.794c-0.521 0.528-0.784 1.204-0.784 2.025s0.263 1.496 0.784 2.025zM78.933 6.302c-0.694 0.714-1.556 1.070-2.587 1.070s-1.894-0.356-2.586-1.070c-0.694-0.713-1.040-1.584-1.040-2.615s0.346-1.904 1.040-2.617c0.692-0.713 1.555-1.070 2.586-1.070 1.025 0 1.885 0.359 2.582 1.075 0.696 0.716 1.044 1.586 1.044 2.612 0 1.031-0.347 1.903-1.040 2.615z"></path>
<path fill="#fff" style="fill: var(--color5, #fff)" d="M81.245 7.215v-7.056h1.103l3.43 5.488h0.040l-0.040-1.359v-4.129h0.908v7.056h-0.947l-3.588-5.755h-0.038l0.038 1.361v4.395h-0.906z"></path>
<path fill="#fff" style="fill: var(--color5, #fff)" d="M118.125 27.207h2.195v-14.701h-2.195v14.701zM137.89 17.801l-2.516 6.374h-0.076l-2.611-6.374h-2.364l3.915 8.908-2.231 4.956h2.287l6.034-13.864h-2.44zM125.445 25.537c-0.72 0-1.722-0.359-1.722-1.249 0-1.134 1.248-1.569 2.326-1.569 0.964 0 1.419 0.208 2.005 0.492-0.171 1.362-1.343 2.326-2.609 2.326zM125.71 17.48c-1.588 0-3.235 0.7-3.915 2.251l1.948 0.813c0.416-0.813 1.192-1.078 2.005-1.078 1.135 0 2.289 0.681 2.307 1.892v0.151c-0.397-0.227-1.248-0.567-2.288-0.567-2.099 0-4.237 1.154-4.237 3.309 0 1.967 1.722 3.235 3.65 3.235 1.476 0 2.29-0.662 2.8-1.438h0.075v1.135h2.118v-5.637c0-2.61-1.947-4.065-4.463-4.065zM112.148 19.591h-3.121v-5.039h3.121c1.641 0 2.572 1.358 2.572 2.519 0 1.14-0.931 2.52-2.572 2.52zM112.092 12.505h-5.258v14.701h2.194v-5.57h3.064c2.432 0 4.823-1.762 4.823-4.566s-2.391-4.565-4.823-4.565zM83.42 25.539c-1.516 0-2.785-1.269-2.785-3.012 0-1.762 1.269-3.051 2.785-3.051 1.497 0 2.671 1.289 2.671 3.051 0 1.743-1.174 3.012-2.671 3.012zM85.94 18.624h-0.076c-0.493-0.587-1.439-1.117-2.633-1.117-2.501 0-4.793 2.197-4.793 5.020 0 2.804 2.292 4.983 4.793 4.983 1.194 0 2.141-0.53 2.633-1.137h0.076v0.721c0 1.913-1.023 2.936-2.672 2.936-1.345 0-2.179-0.967-2.52-1.782l-1.913 0.796c0.549 1.327 2.008 2.955 4.433 2.955 2.576 0 4.756-1.516 4.756-5.21v-8.981h-2.084v0.815zM89.54 27.207h2.198v-14.702h-2.198v14.702zM94.977 22.357c-0.056-1.932 1.497-2.918 2.614-2.918 0.873 0 1.612 0.435 1.857 1.061l-4.471 1.857zM101.797 20.689c-0.416-1.117-1.686-3.182-4.281-3.182-2.576 0-4.717 2.026-4.717 5.002 0 2.804 2.121 5.002 4.963 5.002 2.293 0 3.62-1.402 4.169-2.217l-1.705-1.137c-0.568 0.834-1.346 1.383-2.464 1.383-1.117 0-1.913-0.512-2.425-1.515l6.688-2.767-0.227-0.568zM48.515 19.042v2.122h5.077c-0.151 1.194-0.549 2.065-1.154 2.671-0.74 0.74-1.896 1.555-3.922 1.555-3.127 0-5.571-2.52-5.571-5.646 0-3.127 2.444-5.646 5.571-5.646 1.687 0 2.918 0.663 3.827 1.516l1.497-1.497c-1.27-1.212-2.955-2.142-5.324-2.142-4.282 0-7.882 3.487-7.882 7.769s3.6 7.767 7.882 7.767c2.311 0 4.054-0.759 5.418-2.179 1.403-1.402 1.839-3.372 1.839-4.964 0-0.493-0.038-0.947-0.114-1.325h-7.142zM61.544 25.539c-1.516 0-2.824-1.25-2.824-3.031 0-1.8 1.308-3.032 2.824-3.032 1.514 0 2.822 1.231 2.822 3.032 0 1.78-1.307 3.031-2.822 3.031zM61.544 17.507c-2.767 0-5.022 2.103-5.022 5.002 0 2.88 2.254 5.002 5.022 5.002 2.766 0 5.020-2.122 5.020-5.002 0-2.899-2.254-5.002-5.020-5.002zM72.496 25.539c-1.516 0-2.823-1.25-2.823-3.031 0-1.8 1.308-3.032 2.823-3.032s2.823 1.231 2.823 3.032c0 1.78-1.306 3.031-2.823 3.031zM72.496 17.507c-2.766 0-5.020 2.103-5.020 5.002 0 2.88 2.254 5.002 5.020 5.002s5.020-2.122 5.020-5.002c0-2.899-2.254-5.002-5.020-5.002z"></path>
</symbol>

<symbol id="icon-plus-btn" viewBox="0 0 32 32">
<path d="M14.149 17.852h-13.704v-3.703h13.704v-13.704h3.703v13.704h13.704v3.703h-13.704v13.704h-3.703v-13.704z"></path>
</symbol>
</defs>
</svg>
