<svg width="329" height="96" viewBox="0 0 329 96" fill="none" xmlns="http://www.w3.org/2000/svg">
<rect width="328.66" height="96" rx="10" fill="black"/>
<path d="M50.7375 46.5645L24.2444 74.6825C24.2469 74.6874 24.2469 74.6949 24.2494 74.6999C25.063 77.753 27.85 80 31.1594 80C32.4832 80 33.7249 79.6417 34.7899 79.0146L34.8745 78.9649L64.6945 61.7581L50.7375 46.5645Z" fill="#EA4335"/>
<path d="M77.5389 41.7764L77.514 41.759L64.6394 34.2965L50.135 47.2034L64.6917 61.7551L77.4966 54.3673C79.741 53.153 81.2664 50.7866 81.2664 48.0594C81.2664 45.3472 79.7634 42.9932 77.5389 41.7764Z" fill="#FBBC04"/>
<path d="M24.2439 21.3154C24.0846 21.9026 24 22.5197 24 23.1568V72.8435C24 73.4805 24.0846 74.0976 24.2463 74.6824L51.6477 47.2835L24.2439 21.3154Z" fill="#4285F4"/>
<path d="M50.9331 47.9998L64.6437 34.2916L34.8586 17.0227C33.7762 16.3732 32.5121 16 31.1609 16C27.8515 16 25.0596 18.2519 24.2459 21.3076C24.2459 21.31 24.2434 21.3125 24.2434 21.315L50.9331 47.9998Z" fill="#34A853"/>
<path d="M120.264 23.945C120.264 25.916 119.681 27.4847 118.512 28.656C117.183 30.0484 115.454 30.7446 113.328 30.7446C111.289 30.7446 109.558 30.039 108.135 28.6255C106.707 27.2143 105.997 25.462 105.997 23.3734C105.997 21.2825 106.707 19.5326 108.135 18.1191C109.558 16.7079 111.289 15.9999 113.328 15.9999C114.337 15.9999 115.306 16.1975 116.223 16.5926C117.143 16.9877 117.879 17.5122 118.432 18.1685L117.19 19.4103C116.256 18.2955 114.969 17.7357 113.328 17.7357C111.841 17.7357 110.557 18.2578 109.473 19.3021C108.389 20.3488 107.848 21.7035 107.848 23.3734C107.848 25.041 108.389 26.3981 109.473 27.4424C110.557 28.4891 111.841 29.0088 113.328 29.0088C114.904 29.0088 116.216 28.4844 117.27 27.433C117.952 26.7486 118.345 25.7984 118.45 24.5753H113.328V22.8795H120.165C120.231 23.2488 120.264 23.6039 120.264 23.945Z" fill="white"/>
<path d="M120.264 23.945C120.264 25.916 119.681 27.4847 118.512 28.656C117.183 30.0484 115.454 30.7446 113.328 30.7446C111.289 30.7446 109.558 30.039 108.135 28.6255C106.707 27.2143 105.997 25.462 105.997 23.3734C105.997 21.2825 106.707 19.5326 108.135 18.1191C109.558 16.7079 111.289 15.9999 113.328 15.9999C114.337 15.9999 115.306 16.1975 116.223 16.5926C117.143 16.9877 117.879 17.5122 118.432 18.1685L117.19 19.4103C116.256 18.2955 114.969 17.7357 113.328 17.7357C111.841 17.7357 110.557 18.2578 109.473 19.3021C108.389 20.3488 107.848 21.7035 107.848 23.3734C107.848 25.041 108.389 26.3981 109.473 27.4424C110.557 28.4891 111.841 29.0088 113.328 29.0088C114.904 29.0088 116.216 28.4844 117.27 27.433C117.952 26.7486 118.345 25.7984 118.45 24.5753H113.328V22.8795H120.165C120.231 23.2488 120.264 23.6039 120.264 23.945Z" fill="white"/>
<path d="M131.105 18.0511H124.679V22.5246H130.475V24.2204H124.679V28.6939H131.105V30.4297H122.866V16.3176H131.105V18.0511Z" fill="white"/>
<path d="M131.105 18.0511H124.679V22.5246H130.475V24.2204H124.679V28.6939H131.105V30.4297H122.866V16.3176H131.105V18.0511Z" fill="white"/>
<path d="M138.751 30.4292H136.938V18.0506H132.996V16.3172H142.693V18.0506H138.751V30.4292Z" fill="white"/>
<path d="M138.751 30.4292H136.938V18.0506H132.996V16.3172H142.693V18.0506H138.751V30.4292Z" fill="white"/>
<path d="M149.71 16.3172H151.523V30.4292H149.71V16.3172Z" fill="white"/>
<path d="M159.566 30.4292H157.752V18.0506H153.81V16.3172H163.508V18.0506H159.566V30.4292Z" fill="white"/>
<path d="M159.566 30.4292H157.752V18.0506H153.81V16.3172H163.508V18.0506H159.566V30.4292Z" fill="white"/>
<path d="M172.857 27.4236C173.901 28.482 175.178 29.0088 176.69 29.0088C178.203 29.0088 179.48 28.482 180.524 27.4236C181.569 26.3652 182.093 25.0151 182.093 23.3734C182.093 21.7317 181.569 20.3793 180.524 19.3233C179.48 18.2649 178.203 17.7357 176.69 17.7357C175.178 17.7357 173.901 18.2649 172.857 19.3233C171.815 20.3793 171.29 21.7317 171.29 23.3734C171.29 25.0151 171.815 26.3652 172.857 27.4236ZM181.865 28.6043C180.477 30.032 178.753 30.7446 176.69 30.7446C174.628 30.7446 172.904 30.032 171.518 28.6043C170.131 27.179 169.439 25.4362 169.439 23.3734C169.439 21.3107 170.131 19.5655 171.518 18.1402C172.904 16.7149 174.628 15.9999 176.69 15.9999C178.741 15.9999 180.461 16.7173 181.855 18.1496C183.248 19.582 183.944 21.3225 183.944 23.3734C183.944 25.4362 183.25 27.179 181.865 28.6043Z" fill="white"/>
<path d="M172.857 27.4236C173.901 28.482 175.178 29.0088 176.69 29.0088C178.203 29.0088 179.48 28.482 180.524 27.4236C181.569 26.3652 182.093 25.0151 182.093 23.3734C182.093 21.7317 181.569 20.3793 180.524 19.3233C179.48 18.2649 178.203 17.7357 176.69 17.7357C175.178 17.7357 173.901 18.2649 172.857 19.3233C171.815 20.3793 171.29 21.7317 171.29 23.3734C171.29 25.0151 171.815 26.3652 172.857 27.4236ZM181.865 28.6043C180.477 30.032 178.753 30.7446 176.69 30.7446C174.628 30.7446 172.904 30.032 171.518 28.6043C170.131 27.179 169.439 25.4362 169.439 23.3734C169.439 21.3107 170.131 19.5655 171.518 18.1402C172.904 16.7149 174.628 15.9999 176.69 15.9999C178.741 15.9999 180.461 16.7173 181.855 18.1496C183.248 19.582 183.944 21.3225 183.944 23.3734C183.944 25.4362 183.25 27.179 181.865 28.6043Z" fill="white"/>
<path d="M186.489 30.4292V16.3172H188.695L195.553 27.294H195.633L195.553 24.5751V16.3172H197.369V30.4292H195.476L188.3 18.9185H188.222L188.3 21.6398V30.4292H186.489Z" fill="white"/>
<path d="M186.489 30.4292V16.3172H188.695L195.553 27.294H195.633L195.553 24.5751V16.3172H197.369V30.4292H195.476L188.3 18.9185H188.222L188.3 21.6398V30.4292H186.489Z" fill="white"/>
<path d="M260.249 70.4132H264.638V41.0108H260.249V70.4132ZM299.78 51.6019L294.749 64.3498H294.598L289.377 51.6019H284.649L292.479 69.4183L288.017 79.3297H292.592L304.66 51.6019H299.78ZM274.891 67.0734C273.451 67.0734 271.447 66.356 271.447 64.5755C271.447 62.3082 273.943 61.438 276.1 61.438C278.028 61.438 278.938 61.8543 280.11 62.4211C279.769 65.1447 277.424 67.0734 274.891 67.0734ZM275.42 50.9598C272.242 50.9598 268.949 52.3592 267.59 55.4615L271.485 57.0868C272.318 55.4615 273.868 54.93 275.495 54.93C277.765 54.93 280.072 56.2918 280.11 58.7143V59.0154C279.315 58.5615 277.614 57.8817 275.533 57.8817C271.334 57.8817 267.058 60.1891 267.058 64.5003C267.058 68.4352 270.502 70.9706 274.359 70.9706C277.311 70.9706 278.938 69.6465 279.959 68.0941H280.11V70.3638H284.346V59.0907C284.346 53.8716 280.451 50.9598 275.42 50.9598ZM248.297 55.1816H242.054V45.1033H248.297C251.578 45.1033 253.44 47.8199 253.44 50.1413C253.44 52.4204 251.578 55.1816 248.297 55.1816ZM248.184 41.0108H237.668V70.4132H242.054V59.2741H248.184C253.048 59.2741 257.829 55.7508 257.829 50.1413C257.829 44.5317 253.048 41.0108 248.184 41.0108ZM190.839 67.0781C187.808 67.0781 185.27 64.5403 185.27 61.0546C185.27 57.5313 187.808 54.9535 190.839 54.9535C193.833 54.9535 196.181 57.5313 196.181 61.0546C196.181 64.5403 193.833 67.0781 190.839 67.0781ZM195.88 53.2483H195.727C194.741 52.0746 192.848 51.0139 190.461 51.0139C185.458 51.0139 180.874 55.4074 180.874 61.0546C180.874 66.6618 185.458 71.02 190.461 71.02C192.848 71.02 194.741 69.9593 195.727 68.7457H195.88V70.1874C195.88 74.0141 193.833 76.0604 190.536 76.0604C187.845 76.0604 186.178 74.127 185.496 72.4971L181.669 74.0894C182.767 76.7425 185.686 80 190.536 80C195.689 80 200.047 76.9683 200.047 69.5806V51.6183H195.88V53.2483ZM203.079 70.4132H207.475V41.0084H203.079V70.4132ZM213.953 60.7135C213.84 56.8492 216.947 54.8782 219.181 54.8782C220.926 54.8782 222.403 55.7485 222.895 56.9997L213.953 60.7135ZM227.594 57.3784C226.762 55.144 224.221 51.0139 219.031 51.0139C213.877 51.0139 209.597 55.0664 209.597 61.017C209.597 66.6241 213.84 71.02 219.522 71.02C224.109 71.02 226.762 68.2164 227.86 66.5865L224.45 64.3121C223.314 65.9797 221.759 67.0781 219.522 67.0781C217.288 67.0781 215.695 66.055 214.672 64.0487L228.048 58.5144L227.594 57.3784ZM121.029 54.0832V58.3263H131.183C130.88 60.7136 130.085 62.4564 128.873 63.6677C127.394 65.1471 125.082 66.777 121.029 66.777C114.776 66.777 109.888 61.7367 109.888 55.485C109.888 49.2311 114.776 44.1931 121.029 44.1931C124.402 44.1931 126.865 45.5196 128.683 47.2248L131.677 44.2307C129.137 41.8058 125.766 39.9477 121.029 39.9477C112.466 39.9477 105.266 46.9214 105.266 55.485C105.266 64.0487 112.466 71.02 121.029 71.02C125.651 71.02 129.137 69.503 131.865 66.6618C134.671 63.8582 135.541 59.9186 135.541 56.734C135.541 55.7485 135.466 54.8406 135.313 54.0832H121.029ZM147.087 67.0781C144.056 67.0781 141.44 64.5779 141.44 61.017C141.44 57.416 144.056 54.9535 147.087 54.9535C150.117 54.9535 152.732 57.416 152.732 61.017C152.732 64.5779 150.117 67.0781 147.087 67.0781ZM147.087 51.0139C141.553 51.0139 137.044 55.2193 137.044 61.017C137.044 66.777 141.553 71.02 147.087 71.02C152.619 71.02 157.128 66.777 157.128 61.017C157.128 55.2193 152.619 51.0139 147.087 51.0139ZM168.992 67.0781C165.96 67.0781 163.344 64.5779 163.344 61.017C163.344 57.416 165.96 54.9535 168.992 54.9535C172.023 54.9535 174.636 57.416 174.636 61.017C174.636 64.5779 172.023 67.0781 168.992 67.0781ZM168.992 51.0139C163.46 51.0139 158.951 55.2193 158.951 61.017C158.951 66.777 163.46 71.02 168.992 71.02C174.524 71.02 179.032 66.777 179.032 61.017C179.032 55.2193 174.524 51.0139 168.992 51.0139Z" fill="white"/>
</svg>
