<svg width="281" height="64" viewBox="0 0 281 64" fill="none" xmlns="http://www.w3.org/2000/svg">
<path d="M26.7373 30.5645L0.244141 58.6825C0.246629 58.6874 0.246629 58.6949 0.249117 58.6999C1.0628 61.753 3.84971 64 7.15918 64C8.48296 64 9.72464 63.6417 10.7896 63.0146L10.8742 62.9649L40.6943 45.7581L26.7373 30.5645Z" fill="#EA4335"/>
<path d="M53.5386 25.7765L53.5137 25.7591L40.6392 18.2966L26.1348 31.2035L40.6914 45.7552L53.4963 38.3674C55.7408 37.1531 57.2661 34.7867 57.2661 32.0595C57.2661 29.3472 55.7632 26.9933 53.5386 25.7765Z" fill="#FBBC04"/>
<path d="M0.243855 5.31546C0.0846028 5.90271 0 6.51981 0 7.15682V56.8436C0 57.4806 0.0846028 58.0977 0.246344 58.6824L27.6477 31.2836L0.243855 5.31546Z" fill="#4285F4"/>
<path d="M26.9329 31.9998L40.6435 18.2917L10.8583 1.02274C9.77591 0.373286 8.51185 3.95019e-05 7.16069 3.95019e-05C3.85123 3.95019e-05 1.05933 2.25197 0.245651 5.30762C0.245651 5.31011 0.243164 5.3126 0.243164 5.31509L26.9329 31.9998Z" fill="#34A853"/>
<path d="M96.2643 7.9451C96.2643 9.91608 95.681 11.4849 94.5121 12.6562C93.1832 14.0486 91.4545 14.7448 89.3283 14.7448C87.2891 14.7448 85.558 14.0391 84.135 12.6256C82.7074 11.2144 81.9971 9.46215 81.9971 7.37356C81.9971 5.28263 82.7074 3.53274 84.135 2.11918C85.558 0.707979 87.2891 2.54968e-05 89.3283 2.54968e-05C90.3373 2.54968e-05 91.3063 0.197594 92.2236 0.592731C93.1432 0.987868 93.8794 1.51237 94.4321 2.16857L93.1903 3.41043C92.2565 2.29558 90.97 1.73581 89.3283 1.73581C87.8418 1.73581 86.5576 2.25795 85.4733 3.30224C84.3891 4.34889 83.8481 5.70364 83.8481 7.37356C83.8481 9.04114 84.3891 10.3982 85.4733 11.4425C86.5576 12.4892 87.8418 13.009 89.3283 13.009C90.9041 13.009 92.2165 12.4845 93.2702 11.4331C93.9523 10.7487 94.3451 9.79848 94.4509 8.57544H89.3283V6.87964H96.1656C96.2314 7.24891 96.2643 7.60406 96.2643 7.9451Z" fill="white"/>
<path d="M96.2643 7.9451C96.2643 9.91608 95.681 11.4849 94.5121 12.6562C93.1832 14.0486 91.4545 14.7448 89.3283 14.7448C87.2891 14.7448 85.558 14.0391 84.135 12.6256C82.7074 11.2144 81.9971 9.46215 81.9971 7.37356C81.9971 5.28263 82.7074 3.53274 84.135 2.11918C85.558 0.707979 87.2891 2.54968e-05 89.3283 2.54968e-05C90.3373 2.54968e-05 91.3063 0.197594 92.2236 0.592731C93.1432 0.987868 93.8794 1.51237 94.4321 2.16857L93.1903 3.41043C92.2565 2.29558 90.97 1.73581 89.3283 1.73581C87.8418 1.73581 86.5576 2.25795 85.4733 3.30224C84.3891 4.34889 83.8481 5.70364 83.8481 7.37356C83.8481 9.04114 84.3891 10.3982 85.4733 11.4425C86.5576 12.4892 87.8418 13.009 89.3283 13.009C90.9041 13.009 92.2165 12.4845 93.2702 11.4331C93.9523 10.7487 94.3451 9.79848 94.4509 8.57544H89.3283V6.87964H96.1656C96.2314 7.24891 96.2643 7.60406 96.2643 7.9451Z" fill="white"/>
<path d="M107.105 2.0512H100.68V6.52472H106.475V8.22051H100.68V12.694H107.105V14.4298H98.8662V0.317772H107.105V2.0512Z" fill="white"/>
<path d="M107.105 2.0512H100.68V6.52472H106.475V8.22051H100.68V12.694H107.105V14.4298H98.8662V0.317772H107.105V2.0512Z" fill="white"/>
<path d="M114.751 14.4291H112.938V2.05053H108.996V0.317101H118.693V2.05053H114.751V14.4291Z" fill="white"/>
<path d="M114.751 14.4291H112.938V2.05053H108.996V0.317101H118.693V2.05053H114.751V14.4291Z" fill="white"/>
<path d="M125.71 0.317101H127.523V14.4291H125.71V0.317101Z" fill="white"/>
<path d="M135.566 14.4291H133.753V2.05053H129.811V0.317101H139.508V2.05053H135.566V14.4291Z" fill="white"/>
<path d="M135.566 14.4291H133.753V2.05053H129.811V0.317101H139.508V2.05053H135.566V14.4291Z" fill="white"/>
<path d="M148.857 11.4237C149.901 12.4821 151.178 13.009 152.691 13.009C154.203 13.009 155.48 12.4821 156.524 11.4237C157.569 10.3653 158.093 9.01526 158.093 7.37356C158.093 5.73186 157.569 4.37946 156.524 3.32341C155.48 2.26501 154.203 1.73581 152.691 1.73581C151.178 1.73581 149.901 2.26501 148.857 3.32341C147.815 4.37946 147.29 5.73186 147.29 7.37356C147.29 9.01526 147.815 10.3653 148.857 11.4237ZM157.865 12.6044C156.477 14.0321 154.753 14.7448 152.691 14.7448C150.628 14.7448 148.904 14.0321 147.519 12.6044C146.131 11.1791 145.439 9.43627 145.439 7.37356C145.439 5.31086 146.131 3.56567 147.519 2.14035C148.904 0.715035 150.628 2.54968e-05 152.691 2.54968e-05C154.742 2.54968e-05 156.461 0.717387 157.856 2.14976C159.248 3.58213 159.944 5.32262 159.944 7.37356C159.944 9.43627 159.25 11.1791 157.865 12.6044Z" fill="white"/>
<path d="M148.857 11.4237C149.901 12.4821 151.178 13.009 152.691 13.009C154.203 13.009 155.48 12.4821 156.524 11.4237C157.569 10.3653 158.093 9.01526 158.093 7.37356C158.093 5.73186 157.569 4.37946 156.524 3.32341C155.48 2.26501 154.203 1.73581 152.691 1.73581C151.178 1.73581 149.901 2.26501 148.857 3.32341C147.815 4.37946 147.29 5.73186 147.29 7.37356C147.29 9.01526 147.815 10.3653 148.857 11.4237ZM157.865 12.6044C156.477 14.0321 154.753 14.7448 152.691 14.7448C150.628 14.7448 148.904 14.0321 147.519 12.6044C146.131 11.1791 145.439 9.43627 145.439 7.37356C145.439 5.31086 146.131 3.56567 147.519 2.14035C148.904 0.715035 150.628 2.54968e-05 152.691 2.54968e-05C154.742 2.54968e-05 156.461 0.717387 157.856 2.14976C159.248 3.58213 159.944 5.32262 159.944 7.37356C159.944 9.43627 159.25 11.1791 157.865 12.6044Z" fill="white"/>
<path d="M162.489 14.4291V0.317101H164.695L171.554 11.2939H171.634L171.554 8.57499V0.317101H173.37V14.4291H171.476L164.3 2.91842H164.223L164.3 5.63969V14.4291H162.489Z" fill="white"/>
<path d="M162.489 14.4291V0.317101H164.695L171.554 11.2939H171.634L171.554 8.57499V0.317101H173.37V14.4291H171.476L164.3 2.91842H164.223L164.3 5.63969V14.4291H162.489Z" fill="white"/>
<path d="M236.25 54.4132H240.639V25.0108H236.25V54.4132ZM275.78 35.6019L270.749 48.3498H270.598L265.377 35.6019H260.649L268.479 53.4183L264.017 63.3297H268.592L280.66 35.6019H275.78ZM250.891 51.0734C249.451 51.0734 247.448 50.356 247.448 48.5755C247.448 46.3082 249.943 45.438 252.1 45.438C254.028 45.438 254.939 45.8543 256.11 46.4211C255.769 49.1447 253.424 51.0734 250.891 51.0734ZM251.42 34.9598C248.243 34.9598 244.95 36.3592 243.59 39.4615L247.485 41.0868C248.318 39.4615 249.868 38.93 251.495 38.93C253.765 38.93 256.072 40.2918 256.11 42.7143V43.0154C255.315 42.5615 253.615 41.8817 251.533 41.8817C247.335 41.8817 243.059 44.1891 243.059 48.5003C243.059 52.4352 246.502 54.9706 250.359 54.9706C253.311 54.9706 254.939 53.6465 255.959 52.0941H256.11V54.3638H260.346V43.0907C260.346 37.8716 256.451 34.9598 251.42 34.9598M224.297 39.1816H218.055V29.1033H224.297C227.578 29.1033 229.441 31.8199 229.441 34.1413C229.441 36.4204 227.578 39.1816 224.297 39.1816ZM224.184 25.0108H213.668V54.4132H218.055V43.2741H224.184C229.048 43.2741 233.829 39.7508 233.829 34.1413C233.829 28.5318 229.048 25.0108 224.184 25.0108M166.84 51.0781C163.808 51.0781 161.27 48.5403 161.27 45.0546C161.27 41.5313 163.808 38.9535 166.84 38.9535C169.834 38.9535 172.181 41.5313 172.181 45.0546C172.181 48.5403 169.834 51.0781 166.84 51.0781ZM171.88 37.2483H171.727C170.742 36.0746 168.848 35.0139 166.461 35.0139C161.458 35.0139 156.874 39.4074 156.874 45.0546C156.874 50.6618 161.458 55.02 166.461 55.02C168.848 55.02 170.742 53.9593 171.727 52.7457H171.88V54.1874C171.88 58.0141 169.834 60.0604 166.536 60.0604C163.846 60.0604 162.178 58.127 161.496 56.4971L157.669 58.0894C158.768 60.7425 161.686 64 166.536 64C171.689 64 176.048 60.9683 176.048 53.5806V35.6183H171.88V37.2483ZM179.079 54.4132H183.475V25.0084H179.079V54.4132ZM189.953 44.7135C189.84 40.8492 192.947 38.8782 195.181 38.8782C196.926 38.8782 198.404 39.7485 198.895 40.9997L189.953 44.7135ZM203.594 41.3784C202.762 39.144 200.222 35.0139 195.031 35.0139C189.878 35.0139 185.597 39.0664 185.597 45.017C185.597 50.6241 189.84 55.02 195.522 55.02C200.109 55.02 202.762 52.2164 203.86 50.5865L200.45 48.3121C199.314 49.9797 197.759 51.0781 195.522 51.0781C193.288 51.0781 191.696 50.055 190.672 48.0487L204.048 42.5144L203.594 41.3784ZM97.0297 38.0832V42.3263H107.183C106.88 44.7136 106.085 46.4564 104.874 47.6677C103.394 49.1471 101.082 50.777 97.0297 50.777C90.7758 50.777 85.8883 45.7367 85.8883 39.485C85.8883 33.2311 90.7758 28.1931 97.0297 28.1931C100.403 28.1931 102.865 29.5196 104.683 31.2248L107.677 28.2307C105.137 25.8058 101.767 23.9477 97.0297 23.9477C88.4661 23.9477 81.2666 30.9214 81.2666 39.485C81.2666 48.0487 88.4661 55.02 97.0297 55.02C101.651 55.02 105.137 53.503 107.865 50.6618C110.671 47.8582 111.542 43.9186 111.542 40.734C111.542 39.7485 111.466 38.8406 111.313 38.0832H97.0297ZM123.088 51.0781C120.056 51.0781 117.44 48.5779 117.44 45.017C117.44 41.416 120.056 38.9535 123.088 38.9535C126.117 38.9535 128.732 41.416 128.732 45.017C128.732 48.5779 126.117 51.0781 123.088 51.0781ZM123.088 35.0139C117.553 35.0139 113.045 39.2193 113.045 45.017C113.045 50.777 117.553 55.02 123.088 55.02C128.62 55.02 133.128 50.777 133.128 45.017C133.128 39.2193 128.62 35.0139 123.088 35.0139ZM144.992 51.0781C141.96 51.0781 139.345 48.5779 139.345 45.017C139.345 41.416 141.96 38.9535 144.992 38.9535C148.024 38.9535 150.637 41.416 150.637 45.017C150.637 48.5779 148.024 51.0781 144.992 51.0781ZM144.992 35.0139C139.46 35.0139 134.951 39.2193 134.951 45.017C134.951 50.777 139.46 55.02 144.992 55.02C150.524 55.02 155.033 50.777 155.033 45.017C155.033 39.2193 150.524 35.0139 144.992 35.0139Z" fill="white"/>
</svg>
